<svg width="78" height="32" viewBox="0 0 78 32" fill="none" xmlns="http://www.w3.org/2000/svg">
<g id="Group 9">
<path id="Vector" d="M26.2472 5.24375L26.0536 5.32968C24.9358 4.29829 23.5887 3.47435 22.0124 2.85829C20.4502 2.24224 18.7305 1.9341 16.8533 1.9341C15.0474 1.9341 13.3923 2.22076 11.8874 2.79385C10.3828 3.35262 9.08576 4.16917 7.99664 5.24375C6.92185 6.31832 6.08358 7.63636 5.48162 9.1981C4.87969 10.7598 4.57873 12.5364 4.57873 14.5278C4.57873 16.7199 4.86537 18.7688 5.43866 20.6742C6.01175 22.5654 6.86456 24.2059 7.99664 25.5958C9.12873 26.9854 10.5403 28.0815 12.2314 28.8839C13.9368 29.6718 15.9217 30.0659 18.1861 30.0659C19.0029 30.0659 19.8196 29.9797 20.6366 29.8079C21.4534 29.636 22.2344 29.3852 22.9796 29.0558C23.7393 28.7118 24.4487 28.3037 25.1079 27.8308C25.7815 27.3437 26.3904 26.7921 26.935 26.176L27.1716 26.3264L25.4519 30.7106C24.3768 31.1259 23.1875 31.4412 21.8833 31.6561C20.5937 31.8854 19.2895 32 17.971 32C15.3197 32 12.8906 31.6203 10.6837 30.861C8.49119 30.0874 6.59938 28.9985 5.00867 27.5943C3.43226 26.1903 2.19981 24.5069 1.31128 22.5439C0.437103 20.5668 0 18.3747 0 15.9678C0 14.6068 0.171971 13.267 0.515915 11.949C0.874181 10.6309 1.3901 9.37712 2.06366 8.18797C2.73721 6.99882 3.5684 5.90993 4.55725 4.92151C5.54607 3.91854 6.67099 3.05164 7.9322 2.32101C9.20772 1.59038 10.605 1.02445 12.124 0.623218C13.6573 0.207665 15.3126 0 17.0896 0C19.8554 0 22.4208 0.422713 24.7855 1.26792L26.2472 5.24375Z" fill="#ABC337"/>
<path id="Vector_2" d="M24.5239 10.7029C24.3117 10.6991 24.1047 10.7436 23.9013 10.8671L23.9015 10.8667C23.8013 10.9275 23.6959 11.0159 23.5959 11.0374C23.2685 11.1074 22.9926 11.2939 22.6811 11.3928C22.5329 11.4398 22.4615 11.5306 22.466 11.6841C22.4051 11.7942 22.3091 11.8631 22.1977 11.9157C22.099 11.9623 22.0048 12.0153 21.9755 12.1326C21.975 12.133 21.9744 12.1332 21.9739 12.1337C21.8578 12.2691 21.7356 12.3998 21.6172 12.602L25.2493 11.4104C25.0922 11.261 24.9291 11.1345 25.1108 10.9054C24.9479 10.9166 24.8327 11.011 24.6955 10.9897C24.7734 10.874 24.9399 10.8984 25.0289 10.7848C24.8571 10.7378 24.689 10.7058 24.5239 10.7029ZM26.4732 11.4259C26.3201 11.4353 26.1729 11.4474 26.0458 11.5575C25.8949 11.687 25.7253 11.724 25.5541 11.5796C25.425 11.4706 25.2992 11.4914 25.1527 11.5622C24.8145 11.7262 24.4677 11.873 24.1246 12.0265C23.3289 12.3845 22.5334 12.7428 21.7381 13.1017C21.4836 13.1848 21.4724 13.208 21.5308 13.4611C21.5736 13.646 21.6508 13.8406 21.4337 13.9785C21.41 13.9892 21.3899 14.0067 21.376 14.0286C21.3619 14.0508 21.3547 14.0763 21.355 14.1025C21.3547 14.1027 21.3545 14.1027 21.3543 14.1027C21.2981 14.2994 21.3453 14.4907 21.3809 14.6838C21.4037 14.8062 21.4606 14.8015 21.5546 14.757C21.7674 14.6556 21.9831 14.5605 22.1988 14.4657C22.8804 14.166 23.5621 13.8668 24.2441 13.5676C24.2632 13.5683 24.2822 13.5665 24.301 13.5623C24.2788 13.5741 24.2582 13.588 24.2473 13.614L23.548 14.0237L22.4949 14.5601C22.1932 14.612 21.9316 14.7749 21.6456 14.8673C21.4689 14.9246 21.504 14.9862 21.6246 15.0656C21.7374 15.2014 21.9037 15.235 22.0596 15.2878C22.0599 15.2878 22.0601 15.2876 22.0603 15.2876C22.1811 15.3442 22.3013 15.4026 22.4235 15.4565C22.5372 15.5071 22.6428 15.5246 22.7119 15.3805C22.7507 15.2988 22.8214 15.2869 22.9062 15.3256C23.038 15.3872 23.1778 15.389 23.319 15.3646C23.3193 15.3646 23.3195 15.3648 23.3197 15.3648L23.3204 15.3655L23.3215 15.365C23.375 15.3695 23.4278 15.3702 23.4743 15.3361C23.5381 15.3361 23.6026 15.3312 23.6657 15.3375C23.9664 15.3684 24.2795 15.2661 24.5691 15.4261C24.6241 15.4563 24.6754 15.3963 24.7246 15.3715C25.2464 15.1043 25.7676 14.8362 26.2881 14.5668C26.9796 14.2106 27.6708 13.8543 28.3618 13.4983C28.4211 13.4676 28.5561 13.4542 28.4384 13.3345V13.3333C28.3576 13.1709 28.2853 13.0053 28.2567 12.8243C28.2569 12.824 28.2571 12.8238 28.2573 12.8236C28.2482 12.6886 28.2021 12.5649 28.1439 12.4443C28.0933 12.3407 28.0365 12.312 27.9185 12.3644C27.6455 12.4859 27.3656 12.5969 27.0861 12.6969C26.8064 12.797 26.5466 12.954 26.2458 12.9948C26.2456 12.9948 26.2454 12.9948 26.2449 12.9946C26.2422 12.9487 26.2841 12.9538 26.3091 12.9397L27.7928 12.114C27.7982 11.9755 27.7485 11.8508 27.6957 11.7275C27.6245 11.5474 27.4996 11.4948 27.3193 11.5669C27.1971 11.6174 27.0668 11.6461 26.9346 11.6512V11.6508L26.9337 11.651L26.831 11.6427C26.6864 11.6118 26.5956 11.4928 26.4732 11.4259ZM28.6568 13.7686C28.6232 13.7706 28.5852 13.7847 28.5404 13.8082C27.9933 14.0951 27.4415 14.3723 26.8912 14.6527C26.2447 14.9828 25.5971 15.3093 24.9528 15.6429C24.9121 15.6638 24.7982 15.6593 24.8526 15.7609C24.9237 15.8931 24.902 16.0328 24.9058 16.1713L24.9056 16.172C24.9041 16.24 24.9027 16.3078 24.9014 16.3756C24.9166 16.4843 24.9564 16.5882 25.018 16.679L25.0186 16.6793L25.018 16.6795L25.0967 16.784L25.2811 17.0147C25.3124 17.2293 25.4219 17.2318 25.6065 17.1686C26.2754 16.9395 26.9509 16.7289 27.6241 16.5114L27.6628 16.5515C27.663 16.5515 27.6632 16.5515 27.6634 16.5512L26.9297 16.8983C26.8075 16.931 26.6967 16.9881 26.5868 17.05C26.5707 17.0483 26.5546 17.0509 26.5399 17.0579C26.5253 17.0646 26.5128 17.0753 26.5038 17.089C26.2125 17.1973 25.9285 17.3248 25.6539 17.4707C25.6495 17.4685 25.6443 17.4683 25.6396 17.4698C25.6349 17.4714 25.6309 17.4748 25.6286 17.4792C25.5693 17.4857 25.5138 17.5108 25.47 17.5509C25.3679 17.5737 25.2534 17.607 25.2587 17.7285C25.2724 18.0324 25.1668 18.3088 25.0884 18.5923C25.0643 18.6342 25.0533 18.6827 25.0578 18.7311C25.062 18.7794 25.0811 18.825 25.1122 18.8622C25.1719 18.9338 25.2514 18.8494 25.3169 18.8255C26.3134 18.4643 27.309 18.1009 28.3037 17.7352C28.435 17.6869 28.6037 17.6657 28.6836 17.5714C28.7696 17.4699 28.6534 17.3063 28.6624 17.1669C28.6736 17.1071 28.685 17.0474 28.6962 16.9876C28.7559 16.8037 28.9027 16.6681 28.9774 16.4926L29.3185 16.0187C29.391 15.8634 29.5687 15.8146 29.6631 15.681L29.6586 15.6825L29.662 15.6808C29.8649 15.5561 29.9518 15.3453 30.0948 15.1258L29.1719 15.4093C29.1195 15.4129 29.0681 15.4205 29.0171 15.4304C29.0441 15.4147 29.0679 15.3939 29.0869 15.3693C29.1437 15.342 29.201 15.3153 29.2574 15.2874C29.5546 15.139 29.8806 15.0524 30.1603 14.8669C30.1527 14.8655 30.146 14.8615 30.1409 14.8557C30.1474 14.8593 30.1536 14.8629 30.1603 14.8669C30.1872 14.7859 30.1771 14.7035 30.1619 14.6234L30.1623 14.6245C30.1406 14.5109 30.0907 14.4527 29.9681 14.5346C29.8907 14.5901 29.8014 14.6268 29.7074 14.6415C29.7072 14.6418 29.707 14.642 29.7065 14.642C29.7065 14.6418 29.7067 14.6415 29.7067 14.6411C29.5364 14.6283 29.3606 14.6317 29.2437 14.4719H29.2442C29.1896 14.3967 29.1312 14.4509 29.0757 14.473C28.6465 14.6456 28.2173 14.8183 27.7881 14.9913C27.7559 14.9942 27.7252 15.0016 27.695 15.0112C27.7133 14.9933 27.7294 14.9732 27.7404 14.9481C28.0508 14.7872 28.3607 14.6257 28.6704 14.4636C28.8056 14.3929 29.0262 14.3421 29.0517 14.2423C29.0853 14.113 28.8756 14.0067 28.7993 13.8709C28.7566 13.7952 28.7127 13.7652 28.6568 13.7686ZM28.7129 17.759C28.6942 17.7576 28.6702 17.763 28.6393 17.7758C27.5554 18.2231 26.4703 18.668 25.3843 19.1101C25.3013 19.1448 25.2834 19.175 25.3259 19.2612C25.4297 19.4709 25.525 19.685 25.5785 19.9148C25.5848 19.9779 25.6002 20.0422 25.5962 20.1046C25.5863 20.2494 25.6125 20.2939 25.7698 20.2239C26.4897 19.9034 27.2174 19.6009 27.9371 19.2804C28.2432 19.1439 28.452 18.9013 28.58 18.5905C28.5798 18.5905 28.5794 18.5907 28.5791 18.5907C28.5794 18.5905 28.5794 18.5905 28.5796 18.5903C28.7653 18.3779 28.7942 18.124 28.7738 17.8572C28.7691 17.7966 28.7539 17.7617 28.7129 17.759ZM29.9081 18.1559C29.8215 18.1566 29.7649 18.2461 29.7249 18.326C29.6888 18.3974 29.6629 18.4737 29.6327 18.5478L29.6322 18.548C29.5792 18.6579 29.5364 18.7559 29.3677 18.729C29.2491 18.7102 29.0862 18.8045 29.0978 18.9168C29.1216 19.1515 28.9642 19.3525 29.0126 19.5816C29.0309 19.5986 29.0491 19.6051 29.0667 19.6056C29.0455 19.6186 29.0253 19.6342 29.0083 19.655C28.9786 19.7692 28.9459 19.8826 28.9774 20.0021C28.9777 20.0021 28.9779 20.0021 28.9781 20.0021C29.0705 20.2057 29.1401 20.2317 29.34 20.1746C29.5819 20.1053 29.581 19.8989 29.621 19.713C29.6577 19.6177 29.6846 19.5214 29.6736 19.408L29.3239 19.514L29.3236 19.5149C29.2961 19.5252 29.2648 19.5174 29.2373 19.5288C29.2552 19.5147 29.2708 19.4979 29.2829 19.4767C29.3424 19.442 29.3988 19.3997 29.4619 19.3733C29.8996 19.1914 29.9706 18.8078 30.0032 18.4025C30.0053 18.3157 30.0655 18.1944 29.9471 18.1615C29.9343 18.1577 29.9211 18.1559 29.9081 18.1559ZM27.9358 19.4277C27.1993 19.8076 26.4958 20.1787 25.7837 20.5322C25.6007 20.6233 25.5684 20.7224 25.6627 20.8865C25.7027 21.0348 25.8068 21.1281 25.9345 21.2015L25.935 21.2018C25.9824 21.2653 26.0491 21.2899 26.1245 21.2982C26.391 21.4555 26.7095 21.3134 26.8561 20.9717C27.0427 20.8661 27.228 20.7562 27.4159 20.6524C27.5368 20.5859 27.6218 20.5036 27.5932 20.3521C27.629 20.2525 27.7579 20.2274 27.7823 20.1187C27.7603 19.8844 27.9579 19.6915 27.9358 19.4281V19.4277Z" fill="#ABC337"/>
<path id="Vector_3" d="M38.6219 8.73354L38.5856 8.74965C38.3762 8.55631 38.1235 8.4019 37.8279 8.28643C37.535 8.17074 37.2125 8.113 36.8605 8.113C36.522 8.113 36.2118 8.16671 35.9296 8.27412C35.6474 8.37907 35.4042 8.53214 35.2001 8.73354C34.9985 8.93516 34.8414 9.18221 34.7284 9.47513C34.6156 9.76783 34.5592 10.101 34.5592 10.4743C34.5592 10.8854 34.6129 11.2696 34.7203 11.6267C34.828 11.9814 34.9878 12.2891 35.2001 12.5496C35.4123 12.8101 35.677 13.0157 35.9941 13.1661C36.3138 13.3138 36.686 13.3876 37.1105 13.3876C37.2638 13.3876 37.4168 13.3715 37.5699 13.3393C37.7232 13.3071 37.8695 13.2601 38.0094 13.1983C38.1517 13.1339 38.2849 13.0573 38.4084 12.9687C38.5346 12.8774 38.649 12.7738 38.751 12.6583L38.7953 12.6865L38.4728 13.5087C38.2712 13.5866 38.0483 13.6457 37.8038 13.6859C37.5619 13.7289 37.3175 13.7504 37.0702 13.7504C36.5732 13.7504 36.1176 13.6792 35.7038 13.5369C35.2928 13.3917 34.9381 13.1876 34.6398 12.9244C34.3442 12.661 34.113 12.3455 33.9465 11.9774C33.7827 11.6066 33.7006 11.1957 33.7006 10.7444C33.7006 10.4891 33.7328 10.238 33.7975 9.99071C33.8646 9.74366 33.9613 9.5087 34.0875 9.28559C34.2139 9.06271 34.3697 8.85863 34.5552 8.67312C34.7405 8.48515 34.9515 8.32268 35.188 8.18551C35.427 8.04856 35.6891 7.94249 35.9739 7.8673C36.2615 7.78943 36.5719 7.75049 36.9051 7.75049C37.4236 7.75049 37.9045 7.8297 38.348 7.98814L38.6219 8.73354Z" fill="#ABC337"/>
<path id="Vector_4" d="M45.6758 13.6253V13.6091C45.6811 13.5957 45.6851 13.5756 45.6878 13.5487C45.6905 13.5219 45.6919 13.4977 45.6919 13.4762C45.6919 13.3928 45.6798 13.3015 45.6556 13.2021C45.6341 13.1001 45.5912 12.9738 45.5265 12.8232L45.0389 11.7274C44.8885 11.722 44.6882 11.7194 44.4383 11.7194C44.1885 11.7194 43.9184 11.7194 43.6282 11.7194C43.4158 11.7194 43.2104 11.7194 43.0115 11.7194C42.8154 11.7194 42.638 11.722 42.4796 11.7274L42.0159 12.791C41.9756 12.8906 41.9326 12.9994 41.887 13.1175C41.8413 13.2357 41.8185 13.3552 41.8185 13.4762C41.8185 13.5111 41.8212 13.5407 41.8266 13.5648C41.8319 13.5863 41.8373 13.6011 41.8427 13.6091V13.6253H41.0203V13.6091C41.0689 13.5581 41.1293 13.4682 41.2018 13.3391C41.2743 13.2075 41.3535 13.0437 41.4397 12.8474L43.749 7.72607H44.0715L46.2603 12.65C46.3113 12.7655 46.3636 12.8785 46.4173 12.9886C46.4737 13.096 46.5261 13.1927 46.5744 13.2786C46.623 13.3646 46.666 13.4373 46.7036 13.4964C46.7411 13.5554 46.7667 13.593 46.7801 13.6091V13.6253H45.6758ZM43.0638 11.3727C43.2198 11.3727 43.3796 11.3727 43.5436 11.3727C43.7074 11.37 43.8674 11.3687 44.0232 11.3687C44.1818 11.366 44.3335 11.3647 44.4785 11.3647C44.6238 11.362 44.7554 11.3593 44.8737 11.3566L43.741 8.79774L42.6286 11.3727H43.0638Z" fill="#ABC337"/>
<path id="Vector_5" d="M50.1939 11.0666C50.4573 11.115 50.6977 11.1203 50.9154 11.0827C51.1358 11.0425 51.3238 10.9592 51.4797 10.833C51.6382 10.7041 51.7604 10.5307 51.8465 10.3132C51.9351 10.0957 51.9794 9.8296 51.9794 9.51541C51.9794 9.29768 51.9566 9.10031 51.911 8.92308C51.8653 8.74294 51.7968 8.59122 51.7053 8.46769C51.6167 8.34149 51.5039 8.24459 51.3667 8.17746C51.2298 8.10764 51.0698 8.07273 50.8872 8.07273C50.7717 8.07273 50.6708 8.0781 50.5849 8.08884C50.4989 8.0969 50.4264 8.1063 50.3671 8.11704C50.2973 8.13046 50.2396 8.14523 50.1939 8.16134V11.0666ZM49.3434 7.84716C49.3973 7.85253 49.4537 7.8579 49.5128 7.86327C49.5638 7.86865 49.6202 7.87267 49.6819 7.87536C49.7466 7.87536 49.8124 7.87536 49.8795 7.87536C49.9842 7.87536 50.1255 7.86327 50.3027 7.83911C50.4828 7.81225 50.7111 7.79883 50.9879 7.79883C51.2459 7.79883 51.4838 7.83642 51.7013 7.91161C51.9217 7.9868 52.1124 8.0969 52.2737 8.2419C52.4348 8.38713 52.5599 8.56437 52.6485 8.77382C52.7398 8.98081 52.7855 9.21712 52.7855 9.48319C52.7855 9.84034 52.7143 10.1494 52.572 10.4098C52.4295 10.6705 52.2388 10.8813 51.9996 11.0425C51.7604 11.2038 51.4851 11.3139 51.1734 11.373C50.8617 11.4294 50.5352 11.4321 50.1939 11.381V12.0499C50.1939 12.2782 50.1966 12.4784 50.202 12.6503C50.21 12.8195 50.2181 12.966 50.2262 13.0896C50.2369 13.2131 50.249 13.3165 50.2624 13.3997C50.2785 13.4832 50.2946 13.553 50.3107 13.6094V13.6255H49.3434V13.6094C49.3597 13.553 49.3745 13.4832 49.3879 13.3997C49.404 13.3165 49.4174 13.2131 49.4282 13.0896C49.4389 12.966 49.447 12.8195 49.4523 12.6503C49.4577 12.4784 49.4604 12.2782 49.4604 12.0499V9.42657C49.4604 9.19832 49.4577 8.99961 49.4523 8.83021C49.447 8.65835 49.4389 8.51066 49.4282 8.38714C49.4174 8.2607 49.404 8.15597 49.3879 8.07273C49.3745 7.98949 49.3597 7.91967 49.3434 7.86327V7.84716Z" fill="#ABC337"/>
<path id="Vector_6" d="M55.6754 13.6089C55.6915 13.5525 55.7063 13.4827 55.7197 13.3992C55.7331 13.316 55.7452 13.2126 55.7559 13.0891C55.7667 12.9656 55.7747 12.819 55.7801 12.6498C55.7855 12.478 55.7882 12.2777 55.7882 12.0494V9.42609C55.7882 9.19784 55.7855 8.99913 55.7801 8.82973C55.7747 8.65787 55.7667 8.51018 55.7559 8.38665C55.7452 8.26022 55.7331 8.15549 55.7197 8.07225C55.7063 7.989 55.6915 7.91918 55.6754 7.86279V7.84668H56.6387V7.86279C56.6226 7.91918 56.6063 7.989 56.5902 8.07225C56.5768 8.15549 56.5647 8.26022 56.5539 8.38665C56.5459 8.51018 56.5378 8.65787 56.5298 8.82973C56.5244 8.99913 56.5217 9.19784 56.5217 9.42609V12.0494C56.5217 12.2777 56.5244 12.478 56.5298 12.6498C56.5378 12.819 56.5459 12.9656 56.5539 13.0891C56.5647 13.2126 56.5768 13.316 56.5902 13.3992C56.6063 13.4827 56.6226 13.5525 56.6387 13.6089V13.625H55.6754V13.6089Z" fill="#ABC337"/>
<path id="Vector_7" d="M61.415 8.20163C61.0979 8.20163 60.8119 8.2164 60.5566 8.24594C60.3013 8.27279 60.0811 8.30255 59.8956 8.33477C59.6805 8.37505 59.4885 8.41936 59.3191 8.4677L59.4362 7.81494C59.4684 7.81763 59.5167 7.82031 59.5812 7.823C59.6456 7.82568 59.7168 7.82837 59.7949 7.83105C59.8754 7.83374 59.9587 7.83642 60.0446 7.83911C60.1335 7.83911 60.2167 7.84045 60.2946 7.84314C60.3725 7.84314 60.4411 7.84448 60.5002 7.84716C60.562 7.84716 60.6063 7.84716 60.6332 7.84716H62.9347C62.9615 7.84716 63.0045 7.84716 63.0636 7.84716C63.1253 7.84448 63.1954 7.84314 63.2733 7.84314C63.3511 7.84045 63.433 7.83911 63.519 7.83911C63.6078 7.83642 63.6911 7.83374 63.7689 7.83105C63.8495 7.82837 63.9222 7.82568 63.9867 7.823C64.0511 7.82031 64.0994 7.81763 64.1317 7.81494L64.2487 8.4677C64.0766 8.41936 63.8831 8.37505 63.6682 8.33477C63.4827 8.30255 63.2625 8.27279 63.0072 8.24594C62.7519 8.2164 62.4657 8.20163 62.1486 8.20163V12.0499C62.1486 12.2782 62.1512 12.4784 62.1568 12.6503C62.1649 12.8195 62.173 12.966 62.181 13.0896C62.1918 13.2131 62.2038 13.3165 62.2173 13.3997C62.2334 13.4832 62.2495 13.553 62.2656 13.6094V13.6255H61.3022V13.6094C61.3184 13.553 61.3331 13.4832 61.3465 13.3997C61.36 13.3165 61.3721 13.2131 61.3828 13.0896C61.3935 12.966 61.4016 12.8195 61.407 12.6503C61.4123 12.4784 61.415 12.2782 61.415 12.0499V8.20163Z" fill="#ABC337"/>
<path id="Vector_8" d="M70.4799 13.6253V13.6091C70.4852 13.5957 70.4892 13.5756 70.4919 13.5487C70.4946 13.5219 70.496 13.4977 70.496 13.4762C70.496 13.3928 70.4839 13.3015 70.4597 13.2021C70.438 13.1001 70.395 12.9738 70.3306 12.8232L69.843 11.7274C69.6924 11.722 69.4923 11.7194 69.2424 11.7194C68.9924 11.7194 68.7223 11.7194 68.4323 11.7194C68.2199 11.7194 68.0143 11.7194 67.8156 11.7194C67.6193 11.7194 67.4421 11.722 67.2834 11.7274L66.82 12.791C66.7797 12.8906 66.7367 12.9994 66.6911 13.1175C66.6452 13.2357 66.6224 13.3552 66.6224 13.4762C66.6224 13.5111 66.6251 13.5407 66.6305 13.5648C66.6358 13.5863 66.6412 13.6011 66.6466 13.6091V13.6253H65.8244V13.6091C65.8728 13.5581 65.9332 13.4682 66.0059 13.3391C66.0784 13.2075 66.1576 13.0437 66.2435 12.8474L68.5531 7.72607H68.8756L71.0641 12.65C71.1152 12.7655 71.1677 12.8785 71.2214 12.9886C71.2778 13.096 71.3302 13.1927 71.3785 13.2786C71.4269 13.3646 71.4698 13.4373 71.5077 13.4964C71.5452 13.5554 71.5708 13.593 71.5842 13.6091V13.6253H70.4799ZM67.8679 11.3727C68.0237 11.3727 68.1837 11.3727 68.3475 11.3727C68.5115 11.37 68.6713 11.3687 68.8273 11.3687C68.9857 11.366 69.1376 11.3647 69.2827 11.3647C69.4279 11.362 69.5595 11.3593 69.6776 11.3566L68.5451 8.79774L67.4327 11.3727H67.8679Z" fill="#ABC337"/>
<path id="Vector_9" d="M74.9982 13.2703C75.3153 13.2703 75.6067 13.2569 75.8728 13.2301C76.1388 13.2032 76.3713 13.1723 76.57 13.1374C76.8012 13.0998 77.012 13.0555 77.2029 13.0045L77.0861 13.6573C77.0538 13.6546 77.0053 13.6519 76.9408 13.6492C76.8764 13.6465 76.8039 13.6438 76.7233 13.6411C76.6452 13.6385 76.562 13.6358 76.4734 13.6331C76.3874 13.6331 76.3053 13.6317 76.2274 13.6291C76.1496 13.6291 76.0797 13.6277 76.018 13.625C75.9587 13.625 75.9157 13.625 75.8889 13.625H74.1477V13.6089C74.1638 13.5525 74.1785 13.4827 74.192 13.3992C74.2081 13.316 74.2215 13.2126 74.2323 13.0891C74.243 12.9656 74.251 12.819 74.2564 12.6498C74.2618 12.478 74.2645 12.2777 74.2645 12.0494V9.42609C74.2645 9.19784 74.2618 8.99913 74.2564 8.82973C74.251 8.65787 74.243 8.51018 74.2323 8.38665C74.2215 8.26022 74.2081 8.15549 74.192 8.07225C74.1785 7.989 74.1638 7.91918 74.1477 7.86279V7.84668H75.1151V7.86279C75.0989 7.91918 75.0828 7.989 75.0667 8.07225C75.0533 8.15549 75.0412 8.26022 75.0305 8.38665C75.0224 8.51018 75.0143 8.65787 75.0063 8.82973C75.0009 8.99913 74.9982 9.19784 74.9982 9.42609V13.2703Z" fill="#ABC337"/>
<path id="Vector_10" d="M37.9451 23.9412V23.9251C37.9505 23.9116 37.9545 23.8915 37.9572 23.8647C37.9599 23.8378 37.9612 23.8136 37.9612 23.7921C37.9612 23.7087 37.9491 23.6174 37.9247 23.518C37.9032 23.416 37.8603 23.2898 37.7958 23.1392L37.3082 22.0433C37.1576 22.038 36.9576 22.0353 36.7076 22.0353C36.4576 22.0353 36.1875 22.0353 35.8975 22.0353C35.6852 22.0353 35.4795 22.0353 35.2808 22.0353C35.0846 22.0353 34.9073 22.038 34.7487 22.0433L34.2852 23.1069C34.2449 23.2065 34.202 23.3153 34.1563 23.4334C34.1105 23.5516 34.0876 23.6711 34.0876 23.7921C34.0876 23.8271 34.0903 23.8566 34.0957 23.8808C34.1011 23.9022 34.1064 23.917 34.1118 23.9251V23.9412H33.2896V23.9251C33.338 23.874 33.3984 23.7841 33.4711 23.655C33.5436 23.5234 33.6228 23.3596 33.7088 23.1636L36.0184 18.042H36.3408L38.5294 22.966C38.5804 23.0814 38.633 23.1944 38.6867 23.3045C38.7431 23.4119 38.7954 23.5086 38.8438 23.5946C38.8921 23.6805 38.9351 23.7532 38.9729 23.8123C39.0105 23.8714 39.036 23.909 39.0494 23.9251V23.9412H37.9451ZM35.3332 21.6887C35.4889 21.6887 35.6489 21.6887 35.8127 21.6887C35.9767 21.686 36.1365 21.6846 36.2925 21.6846C36.4509 21.6819 36.6029 21.6806 36.7479 21.6806C36.8929 21.6779 37.0247 21.6752 37.1428 21.6725L36.0103 19.1137L34.8979 21.6887H35.3332Z" fill="#ABC337"/>
<path id="Vector_11" d="M42.4633 22.3653C42.4633 22.5938 42.466 22.7939 42.4713 22.9657C42.4794 23.1349 42.4874 23.2815 42.4955 23.405C42.5062 23.5285 42.5183 23.6319 42.5317 23.7154C42.5479 23.7986 42.564 23.8684 42.5801 23.9248V23.9409H41.6127V23.9248C41.6288 23.8684 41.6436 23.7986 41.657 23.7154C41.6731 23.6319 41.6865 23.5285 41.6973 23.405C41.708 23.2815 41.7161 23.1349 41.7215 22.9657C41.7268 22.7939 41.7295 22.5938 41.7295 22.3653V19.7422C41.7295 19.5137 41.7268 19.315 41.7215 19.1459C41.7161 18.9738 41.708 18.8261 41.6973 18.7026C41.6865 18.5764 41.6731 18.4714 41.657 18.3882C41.6436 18.3049 41.6288 18.2351 41.6127 18.1787V18.1626C41.8358 18.1626 42.0614 18.1626 42.2898 18.1626C42.5183 18.1599 42.7399 18.1586 42.9549 18.1586C43.17 18.1559 43.374 18.1532 43.5676 18.1505C43.761 18.1451 43.9357 18.1411 44.0915 18.1384C44.2474 18.1331 44.379 18.1277 44.4864 18.1223C44.5941 18.1143 44.6706 18.1062 44.7163 18.0981L44.5189 18.6341C44.43 18.6099 44.3267 18.5884 44.2085 18.5694C44.1062 18.5533 43.9814 18.5385 43.8337 18.5251C43.6884 18.509 43.5206 18.5009 43.3297 18.5009C43.2653 18.5009 43.1847 18.5036 43.0878 18.509C42.9912 18.5117 42.8958 18.5157 42.8018 18.5211C42.6942 18.5264 42.5814 18.5318 42.4633 18.5372V20.5722C42.7399 20.5695 42.9938 20.5615 43.225 20.548C43.4559 20.5346 43.6549 20.5212 43.8216 20.5078C44.0149 20.4917 44.1897 20.4729 44.3455 20.4514L44.2246 21.0357C44.023 21.0115 43.8189 20.9887 43.6119 20.9672C43.4345 20.9484 43.2438 20.9323 43.0395 20.9188C42.8354 20.9027 42.6432 20.8947 42.4633 20.8947V22.3653Z" fill="#ABC337"/>
<path id="Vector_12" d="M48.3723 22.3653C48.3723 22.5938 48.3749 22.7939 48.3803 22.9657C48.3884 23.1349 48.3964 23.2815 48.4045 23.405C48.4152 23.5285 48.4273 23.6319 48.4407 23.7154C48.4568 23.7986 48.473 23.8684 48.4891 23.9248V23.9409H47.5217V23.9248C47.5378 23.8684 47.5526 23.7986 47.566 23.7154C47.5821 23.6319 47.5942 23.5285 47.6022 23.405C47.613 23.2815 47.621 23.1349 47.6266 22.9657C47.6347 22.7965 47.6387 22.5965 47.6387 22.3653V19.7422C47.6387 19.5138 47.6347 19.315 47.6266 19.1459C47.621 18.9738 47.613 18.8261 47.6022 18.7026C47.5942 18.579 47.5821 18.4754 47.566 18.3922C47.5526 18.3063 47.5378 18.2351 47.5217 18.1787V18.1626L47.6911 18.1787C47.7421 18.1841 47.7985 18.1881 47.8603 18.1908C47.9247 18.1908 47.9907 18.1908 48.0578 18.1908C48.1626 18.1908 48.3036 18.1787 48.481 18.1545C48.6611 18.1277 48.8894 18.1143 49.1662 18.1143C49.4242 18.1143 49.6619 18.1492 49.8796 18.219C50.1 18.2888 50.2907 18.3908 50.452 18.5251C50.6132 18.6596 50.7382 18.8247 50.8269 19.0208C50.9182 19.2143 50.9638 19.4345 50.9638 19.6816C50.9638 19.8752 50.9383 20.0551 50.8873 20.2216C50.8389 20.3856 50.7691 20.5346 50.6776 20.6689C50.589 20.8032 50.4816 20.9229 50.3551 21.0276C50.2289 21.1296 50.0879 21.2156 49.932 21.2854L51.3467 23.2721C51.4165 23.3714 51.4812 23.4574 51.5403 23.5299C51.602 23.6024 51.6598 23.6655 51.7135 23.7194C51.7698 23.7704 51.8238 23.8134 51.8748 23.8483C51.9258 23.8805 51.9782 23.906 52.0319 23.9248V23.9409H50.8671C50.8591 23.8899 50.8322 23.8228 50.7866 23.7395C50.7436 23.6534 50.6924 23.5688 50.6333 23.4856L49.2065 21.4749C49.1447 21.4803 49.083 21.4857 49.0212 21.491C48.9592 21.4937 48.8961 21.4951 48.8317 21.4951C48.7565 21.4951 48.6799 21.4924 48.6018 21.487C48.5267 21.4816 48.4501 21.4722 48.3723 21.4588V22.3653ZM48.3723 21.1444C48.4448 21.1605 48.5186 21.1726 48.5938 21.1807C48.6692 21.186 48.7417 21.1887 48.8115 21.1887C49.0132 21.1887 49.1971 21.1592 49.3638 21.1001C49.5303 21.0383 49.6713 20.9457 49.787 20.822C49.9051 20.6984 49.9964 20.5454 50.0611 20.3628C50.1255 20.1773 50.1578 19.9611 50.1578 19.714C50.1578 19.5124 50.1349 19.3298 50.0893 19.166C50.0434 19.002 49.9749 18.8637 49.8836 18.7509C49.795 18.6354 49.682 18.5466 49.5451 18.4848C49.4081 18.4204 49.2481 18.3882 49.0655 18.3882C48.88 18.3882 48.7323 18.3976 48.622 18.4164C48.5119 18.4352 48.4286 18.4553 48.3723 18.4768V21.1444Z" fill="#ABC337"/>
<path id="Vector_13" d="M54.4982 23.9248C54.5144 23.8684 54.5291 23.7986 54.5428 23.7154C54.5562 23.6319 54.5683 23.5285 54.579 23.405C54.5898 23.2815 54.5978 23.1349 54.6032 22.9657C54.6086 22.7939 54.6113 22.5938 54.6113 22.3653V19.7422C54.6113 19.5138 54.6086 19.315 54.6032 19.1459C54.5978 18.9738 54.5898 18.8261 54.579 18.7026C54.5683 18.5764 54.5562 18.4714 54.5428 18.3882C54.5291 18.3049 54.5144 18.2351 54.4982 18.1787V18.1626H55.4616V18.1787C55.4455 18.2351 55.4294 18.3049 55.4133 18.3882C55.3998 18.4714 55.3878 18.5764 55.377 18.7026C55.369 18.8261 55.3609 18.9738 55.3528 19.1459C55.3475 19.315 55.3448 19.5138 55.3448 19.7422V22.3653C55.3448 22.5938 55.3475 22.7939 55.3528 22.9657C55.3609 23.1349 55.369 23.2815 55.377 23.405C55.3878 23.5285 55.3998 23.6319 55.4133 23.7154C55.4294 23.7986 55.4455 23.8684 55.4616 23.9248V23.9409H54.4982V23.9248Z" fill="#ABC337"/>
<path id="Vector_14" d="M63.3939 19.049L63.3577 19.0651C63.148 18.8717 62.8956 18.7173 62.6 18.6019C62.3071 18.4862 61.9846 18.4284 61.6326 18.4284C61.294 18.4284 60.9837 18.4821 60.7015 18.5898C60.4193 18.6945 60.1763 18.8476 59.972 19.049C59.7706 19.2506 59.6132 19.4976 59.5005 19.7906C59.3877 20.0833 59.3311 20.4165 59.3311 20.7897C59.3311 21.2008 59.3848 21.585 59.4924 21.9422C59.5998 22.2969 59.7598 22.6046 59.972 22.865C60.1843 23.1255 60.4491 23.3312 60.7659 23.4815C61.0857 23.6292 61.4578 23.7031 61.8826 23.7031C62.0356 23.7031 62.1889 23.687 62.342 23.6547C62.495 23.6225 62.6416 23.5755 62.7812 23.5138C62.9238 23.4493 63.0567 23.3728 63.1802 23.2842C63.3067 23.1929 63.4208 23.0892 63.5228 22.9738L63.5674 23.002L63.2449 23.8241C63.0433 23.902 62.8202 23.9611 62.5758 24.0014C62.3339 24.0443 62.0893 24.0658 61.8423 24.0658C61.3451 24.0658 60.8897 23.9946 60.4759 23.8523C60.0646 23.7071 59.7099 23.503 59.4118 23.2398C59.1162 22.9765 58.8851 22.6609 58.7186 22.2928C58.5546 21.922 58.4727 21.5112 58.4727 21.0598C58.4727 20.8045 58.5049 20.5534 58.5693 20.3064C58.6365 20.0591 58.7334 19.8241 58.8596 19.601C58.9858 19.3781 59.1418 19.1741 59.327 18.9886C59.5125 18.8006 59.7233 18.6381 59.9599 18.5009C60.1991 18.364 60.4611 18.2579 60.7458 18.1827C61.0333 18.1049 61.3437 18.0659 61.6769 18.0659C62.1956 18.0659 62.6765 18.1451 63.1198 18.3036L63.3939 19.049Z" fill="#ABC337"/>
<path id="Vector_15" d="M70.4474 23.9412V23.9251C70.4528 23.9116 70.4568 23.8915 70.4597 23.8647C70.4624 23.8378 70.4637 23.8136 70.4637 23.7921C70.4637 23.7087 70.4514 23.6174 70.4273 23.518C70.4058 23.416 70.3628 23.2898 70.2984 23.1392L69.8108 22.0433C69.6602 22.038 69.4601 22.0353 69.2101 22.0353C68.9602 22.0353 68.6901 22.0353 68.4001 22.0353C68.1877 22.0353 67.9821 22.0353 67.7834 22.0353C67.5871 22.0353 67.4099 22.038 67.2512 22.0433L66.7878 23.1069C66.7475 23.2065 66.7045 23.3153 66.6589 23.4334C66.613 23.5516 66.5902 23.6711 66.5902 23.7921C66.5902 23.8271 66.5929 23.8566 66.5982 23.8808C66.6036 23.9022 66.609 23.917 66.6143 23.9251V23.9412H65.7922V23.9251C65.8405 23.874 65.9009 23.7841 65.9737 23.655C66.0462 23.5234 66.1254 23.3596 66.2113 23.1636L68.5209 18.042H68.8434L71.0319 22.966C71.0829 23.0814 71.1353 23.1944 71.1892 23.3045C71.2456 23.4119 71.298 23.5086 71.3463 23.5946C71.3947 23.6805 71.4376 23.7532 71.4752 23.8123C71.513 23.8714 71.5385 23.909 71.552 23.9251V23.9412H70.4474ZM67.8357 21.6887C67.9915 21.6887 68.1515 21.6887 68.3153 21.6887C68.4793 21.686 68.6391 21.6846 68.795 21.6846C68.9535 21.6819 69.1054 21.6806 69.2504 21.6806C69.3954 21.6779 69.5272 21.6752 69.6454 21.6725L68.5129 19.1137L67.4005 21.6887H67.8357Z" fill="#ABC337"/>
<path id="Vector_16" d="M76.4288 22.859C76.4288 23.5119 75.8993 24.0412 75.2461 24.0412C74.5929 24.0412 74.0635 23.5119 74.0635 22.859C74.0635 22.206 74.5929 21.6768 75.2461 21.6768C75.8993 21.6768 76.4288 22.206 76.4288 22.859Z" fill="#ABC337"/>
</g>
</svg>
