<svg version="1.2" xmlns="http://www.w3.org/2000/svg" viewBox="0 0 32 32" width="32" height="32">
	<title>logo-11-svg</title>
	<style>
		.s0 { fill: #abc337 } 
	</style>
	<g id="Group 9">
		<path id="Vector" class="s0" d="m26.2 5.2l-0.1 0.1q-1.7-1.5-4.1-2.4-2.3-1-5.1-1-2.8 0-5 0.9-2.3 0.8-3.9 2.4-1.6 1.7-2.5 4-0.9 2.3-0.9 5.3 0 3.3 0.8 6.2 0.9 2.8 2.6 4.9 1.7 2.1 4.2 3.3 2.6 1.2 6 1.2 1.2 0 2.4-0.3 1.3-0.3 2.4-0.7 1.1-0.6 2.1-1.3 1-0.7 1.8-1.6l0.3 0.1-1.7 4.4q-1.7 0.6-3.6 1-2 0.3-3.9 0.3-4 0-7.3-1.1-3.3-1.2-5.7-3.3-2.4-2.1-3.7-5.1-1.3-2.9-1.3-6.5 0-2.1 0.5-4.1 0.6-1.9 1.6-3.7 1-1.8 2.5-3.3 1.4-1.5 3.3-2.6 1.9-1.1 4.2-1.7 2.3-0.6 5-0.6 4.1 0 7.7 1.3z"/>
		<path id="Vector_2" class="s0" d="m24.5 10.7q-0.3 0-0.6 0.2c-0.1 0-0.2 0.1-0.3 0.1-0.3 0.1-0.6 0.3-0.9 0.4q-0.2 0.1-0.2 0.3-0.1 0.1-0.3 0.2c-0.1 0.1-0.2 0.1-0.2 0.2q0 0 0 0c-0.1 0.2-0.3 0.3-0.4 0.5l3.6-1.2c-0.1-0.1-0.3-0.3-0.1-0.5-0.2 0-0.3 0.1-0.4 0.1 0.1-0.1 0.2-0.1 0.3-0.2q-0.2-0.1-0.5-0.1zm2 0.7c-0.2 0-0.3 0-0.5 0.2-0.1 0.1-0.3 0.1-0.4 0-0.2-0.1-0.3-0.1-0.4 0q-0.6 0.2-1.1 0.4-1.2 0.6-2.4 1.1c-0.2 0.1-0.2 0.1-0.2 0.4 0.1 0.1 0.2 0.3-0.1 0.5q0 0 0 0 0 0.1 0 0.1 0 0 0 0c-0.1 0.2-0.1 0.4 0 0.6 0 0.1 0.1 0.1 0.2 0.1q0.3-0.2 0.6-0.3 1-0.5 2-0.9 0.1 0 0.1 0 0 0-0.1 0l-0.7 0.4-1 0.6c-0.3 0-0.6 0.2-0.9 0.3-0.1 0-0.1 0.1 0 0.2 0.1 0.1 0.3 0.1 0.5 0.2q0 0 0 0 0.1 0.1 0.3 0.2c0.1 0 0.2 0 0.3-0.1q0.1-0.1 0.2-0.1 0.2 0.1 0.4 0.1 0 0 0 0 0.1 0 0.2-0.1 0.1 0 0.2 0c0.3 0.1 0.6 0 0.9 0.1 0 0.1 0.1 0 0.1 0q0.8-0.4 1.6-0.8 1-0.6 2.1-1.1c0 0 0.2 0 0-0.2q-0.1-0.2-0.1-0.5 0 0 0 0-0.1-0.2-0.2-0.4 0-0.1-0.2 0-0.4 0.1-0.8 0.3c-0.3 0.1-0.6 0.3-0.9 0.3q0 0 0 0c0-0.1 0.1 0 0.1-0.1l1.5-0.8q0-0.2-0.1-0.4-0.1-0.2-0.4-0.1-0.2 0-0.4 0.1l-0.1-0.1c-0.1 0-0.2-0.1-0.3-0.2zm2.2 2.4q-0.1 0-0.2 0-0.8 0.4-1.6 0.9-1 0.4-1.9 0.9c-0.1 0.1-0.2 0.1-0.1 0.2 0 0.1 0 0.2 0 0.4q0 0.1 0 0.2 0 0.1 0.1 0.3l0.1 0.1 0.2 0.2c0 0.2 0.1 0.2 0.3 0.2q1-0.4 2-0.7l0.1 0.1q0 0 0 0l-0.8 0.3q-0.2 0.1-0.3 0.2 0-0.1-0.1 0 0 0 0 0-0.4 0.2-0.8 0.4-0.1 0-0.1 0 0 0 0 0-0.1 0-0.1 0.1c-0.1 0-0.2 0-0.2 0.1 0 0.3-0.1 0.6-0.2 0.9q0 0.1 0 0.1 0 0.1 0 0.2c0.1 0 0.2-0.1 0.2-0.1q1.5-0.5 3-1.1c0.1 0 0.3 0 0.4-0.1 0.1-0.1 0-0.3 0-0.4q0-0.1 0-0.2c0.1-0.2 0.2-0.3 0.3-0.5l0.3-0.5c0.1-0.1 0.3-0.2 0.4-0.3 0.2-0.1 0.3-0.4 0.4-0.6l-0.9 0.3q-0.1 0-0.2 0 0.1 0 0.1 0 0.1-0.1 0.2-0.1c0.3-0.2 0.6-0.2 0.9-0.4q-0.1 0-0.1 0 0.1 0 0.1 0 0-0.2 0-0.3c-0.1-0.1-0.1-0.1-0.2-0.1q-0.1 0.1-0.3 0.1 0 0 0 0 0 0 0 0c-0.2 0-0.3 0-0.5-0.1 0-0.1-0.1 0-0.1 0q-0.7 0.2-1.3 0.5-0.1 0-0.1 0 0 0 0-0.1 0.5-0.2 1-0.4c0.1-0.1 0.3-0.2 0.4-0.3 0-0.1-0.2-0.2-0.3-0.3q-0.1-0.1-0.1-0.1zm0 4q0 0-0.1 0-1.6 0.6-3.2 1.3-0.1 0-0.1 0.2 0.2 0.3 0.3 0.6 0 0.1 0 0.2c0 0.1 0 0.2 0.2 0.1q1.1-0.4 2.1-0.9 0.5-0.2 0.7-0.7 0 0 0 0 0 0 0 0c0.2-0.2 0.2-0.5 0.2-0.7q0-0.1-0.1-0.1zm1.2 0.4c-0.1 0-0.1 0-0.2 0.1q0 0.1-0.1 0.2c0 0.2-0.1 0.3-0.2 0.2-0.2 0-0.3 0.1-0.3 0.2 0 0.3-0.1 0.5-0.1 0.7q0 0 0.1 0-0.1 0-0.1 0.1c0 0.1-0.1 0.2 0 0.3q0 0 0 0c0.1 0.2 0.1 0.2 0.3 0.2 0.3-0.1 0.3-0.3 0.3-0.5q0.1-0.1 0.1-0.3l-0.4 0.1q0 0-0.1 0 0.1 0 0.1 0 0.1-0.1 0.2-0.1c0.4-0.2 0.5-0.6 0.5-1 0-0.1 0.1-0.2-0.1-0.2q0 0 0 0zm-2 1.2q-1.1 0.6-2.1 1.1-0.3 0.2-0.1 0.4 0 0.2 0.2 0.3 0.1 0.1 0.2 0.1c0.3 0.2 0.6 0 0.8-0.3q0.2-0.2 0.5-0.3c0.1-0.1 0.2-0.2 0.2-0.3 0-0.1 0.2-0.2 0.2-0.3 0-0.2 0.2-0.4 0.1-0.7z"/>
		<path id="Vector_3" class="s0" d="m38.6 8.7q-0.3-0.2-0.8-0.4-0.4-0.2-0.9-0.2-0.5 0-1 0.2-0.4 0.1-0.7 0.4-0.3 0.3-0.5 0.8-0.1 0.4-0.1 1 0 0.6 0.1 1.1 0.2 0.6 0.5 0.9 0.3 0.4 0.8 0.7 0.5 0.2 1.1 0.2 0.2 0 0.5-0.1 0.2 0 0.4-0.1 0.2-0.1 0.4-0.2 0.2-0.2 0.4-0.3l-0.3 0.8q-0.3 0.1-0.7 0.2-0.4 0.1-0.7 0.1-0.8 0-1.4-0.3-0.6-0.2-1.1-0.6-0.4-0.4-0.7-0.9-0.2-0.6-0.2-1.3 0-0.3 0.1-0.7 0.1-0.4 0.3-0.7 0.2-0.3 0.5-0.6 0.2-0.3 0.6-0.5 0.3-0.2 0.8-0.3 0.4-0.1 0.9-0.1 0.8 0 1.4 0.2z"/>
		<path id="Vector_4" fill-rule="evenodd" class="s0" d="m45.7 13.6q0 0 0-0.1 0 0 0 0 0-0.1 0-0.3-0.1-0.2-0.2-0.4l-0.5-1.1q-0.2 0-0.6 0-0.3 0-0.8 0-0.3 0-0.6 0-0.3 0-0.5 0l-0.5 1.1q0 0.1-0.1 0.3-0.1 0.2-0.1 0.4 0 0 0 0.1 0 0 0 0h-0.8q0.1-0.1 0.2-0.3 0.1-0.2 0.2-0.5l2.3-5.1h0.4l2.2 5q0 0.1 0.1 0.3 0.1 0.1 0.2 0.3 0 0.1 0.1 0.2 0.1 0.1 0.1 0.1zm-2.2-2.2q0.3 0 0.5 0 0.3 0 0.5 0 0.2 0 0.4 0l-1.2-2.6-1.1 2.6c0.2 0 0.8 0 0.9 0z"/>
		<path id="Vector_5" fill-rule="evenodd" class="s0" d="m49.3 7.8q0.1 0.1 0.2 0.1 0.1 0 0.2 0 0.1 0 0.2 0 0.1 0 0.4-0.1 0.3 0 0.7 0 0.4 0 0.7 0.1 0.3 0.1 0.6 0.3 0.2 0.3 0.3 0.6 0.2 0.3 0.2 0.7 0 0.5-0.2 0.9-0.2 0.4-0.6 0.6-0.4 0.3-0.8 0.4-0.5 0.1-1 0v0.6q0 0.4 0 0.7 0 0.2 0 0.4 0 0.2 0.1 0.3 0 0.1 0 0.2h-1q0.1-0.1 0.1-0.2 0-0.1 0-0.3 0-0.2 0.1-0.4 0-0.3 0-0.7v-2.6q0-0.3 0-0.6-0.1-0.2-0.1-0.4 0-0.2 0-0.3 0-0.2-0.1-0.2zm0.9 3.2q0.4 0.1 0.7 0 0.3-0.1 0.6-0.3 0.2-0.1 0.3-0.5 0.2-0.3 0.2-0.8 0-0.3-0.1-0.6-0.1-0.2-0.2-0.4-0.1-0.2-0.3-0.3-0.2-0.1-0.5-0.1-0.2 0-0.3 0-0.1 0-0.2 0-0.1 0.1-0.2 0.1z"/>
		<path id="Vector_6" class="s0" d="m55.7 13.6q0-0.1 0-0.2 0-0.1 0.1-0.3 0-0.2 0-0.5 0-0.2 0-0.6v-2.6q0-0.3 0-0.6 0-0.2 0-0.4-0.1-0.2-0.1-0.3 0-0.2 0-0.2v-0.1h0.9v0.1q0 0 0 0.2 0 0.1 0 0.3-0.1 0.2-0.1 0.4 0 0.3 0 0.6v2.6q0 0.4 0 0.6 0 0.3 0.1 0.5 0 0.2 0 0.3 0 0.1 0 0.2h-0.9z"/>
		<path id="Vector_7" class="s0" d="m61.4 8.2q-0.5 0-0.8 0-0.4 0.1-0.7 0.1-0.3 0.1-0.6 0.2l0.1-0.7q0.1 0 0.2 0 0.1 0 0.2 0 0.1 0 0.2 0 0.2 0 0.3 0 0.1 0 0.2 0 0.1 0 0.1 0h2.3q0.1 0 0.2 0 0.1 0 0.2 0 0.1 0 0.2 0 0.2 0 0.3 0 0.1 0 0.2 0 0.1 0 0.1 0l0.1 0.7q-0.2-0.1-0.5-0.2-0.3 0-0.7-0.1-0.4 0-0.9 0v3.8q0 0.4 0.1 0.7 0 0.2 0 0.4 0 0.2 0 0.3 0 0.1 0.1 0.2h-1q0-0.1 0-0.2 0.1-0.1 0.1-0.3 0-0.2 0-0.4 0-0.3 0-0.7z"/>
		<path id="Vector_8" fill-rule="evenodd" class="s0" d="m70.5 13.6q0 0 0-0.1 0 0 0 0 0-0.1 0-0.3-0.1-0.2-0.2-0.4l-0.5-1.1q-0.2 0-0.6 0-0.3 0-0.8 0-0.3 0-0.6 0-0.3 0-0.5 0l-0.5 1.1q0 0.1-0.1 0.3-0.1 0.2-0.1 0.4 0 0 0 0.1 0 0 0 0h-0.8q0.1-0.1 0.2-0.3 0.1-0.2 0.2-0.5l2.4-5.1h0.3l2.2 5q0 0.1 0.1 0.3 0.1 0.1 0.2 0.3 0.1 0.1 0.1 0.2 0.1 0.1 0.1 0.1zm-2.1-2.2q0.2 0 0.4 0 0.3 0 0.5 0 0.2 0 0.4 0l-1.2-2.6-1.1 2.6c0.2 0 0.8 0 1 0z"/>
		<path id="Vector_9" class="s0" d="m75 13.3q0.5 0 0.9-0.1 0.4 0 0.7-0.1 0.3 0 0.6-0.1l-0.1 0.7q-0.1 0-0.2-0.1-0.1 0-0.2 0-0.1 0-0.2 0-0.2 0-0.3 0-0.1 0-0.2 0-0.1 0-0.1 0h-1.8q0.1-0.1 0.1-0.2 0-0.1 0-0.3 0-0.2 0.1-0.5 0-0.2 0-0.6v-2.6q0-0.3 0-0.6-0.1-0.2-0.1-0.4 0-0.2 0-0.3 0-0.2-0.1-0.2v-0.1h1v0.1q0 0 0 0.2-0.1 0.1-0.1 0.3 0 0.2 0 0.4 0 0.3 0 0.6z"/>
		<path id="Vector_10" fill-rule="evenodd" class="s0" d="m37.9 23.9q0.1 0 0.1 0 0-0.1 0-0.1 0-0.1-0.1-0.3 0-0.1-0.1-0.4l-0.5-1.1q-0.2 0-0.6 0-0.4 0-0.8 0-0.3 0-0.6 0-0.3 0-0.6 0l-0.4 1.1q-0.1 0.2-0.1 0.3-0.1 0.2-0.1 0.4 0 0 0 0.1 0 0 0 0h-0.8q0.1-0.1 0.2-0.2 0.1-0.2 0.2-0.5l2.3-5.2h0.3l2.2 5q0.1 0.1 0.2 0.3 0.1 0.2 0.1 0.3 0.1 0.1 0.2 0.2 0 0.1 0 0.1zm-2.1-2.2q0.3 0 0.5 0 0.2 0 0.5 0 0.2 0 0.3 0l-1.1-2.6-1.1 2.6c0.2 0 0.8 0 0.9 0z"/>
		<path id="Vector_11" class="s0" d="m42.5 22.4q0 0.3 0 0.6 0 0.2 0 0.4 0 0.2 0 0.3 0.1 0.1 0.1 0.2h-1q0-0.1 0.1-0.2 0-0.1 0-0.3 0-0.2 0-0.4 0-0.3 0-0.6v-2.7q0-0.3 0-0.6 0-0.2 0-0.4 0-0.2 0-0.3-0.1-0.1-0.1-0.2 0.3 0 0.7 0 0.3 0 0.7 0 0.3 0 0.6 0 0.3-0.1 0.5-0.1 0.2 0 0.4 0 0.1 0 0.2 0l-0.2 0.5q-0.1 0-0.3 0-0.1-0.1-0.4-0.1-0.2 0-0.5 0-0.1 0-0.2 0-0.2 0-0.3 0-0.2 0-0.3 0v2.1q0.4 0 0.7-0.1 0.4 0 0.6 0 0.3 0 0.5 0l-0.1 0.5q-0.3 0-0.6 0-0.3-0.1-0.6-0.1-0.3 0-0.5 0z"/>
		<path id="Vector_12" fill-rule="evenodd" class="s0" d="m48.4 22.4q0 0.3 0 0.6 0 0.2 0 0.4 0 0.2 0 0.3 0.1 0.1 0.1 0.2h-1q0-0.1 0.1-0.2 0-0.1 0-0.3 0-0.2 0-0.4 0-0.3 0-0.6v-2.7q0-0.3 0-0.6 0-0.2 0-0.4 0-0.2 0-0.3-0.1-0.1-0.1-0.2h0.2q0.1 0 0.2 0 0.1 0 0.2 0 0.1 0 0.4 0 0.3-0.1 0.7-0.1 0.4 0 0.7 0.1 0.3 0.1 0.6 0.3 0.2 0.2 0.3 0.5 0.2 0.3 0.2 0.7 0 0.3-0.1 0.5-0.1 0.3-0.2 0.5-0.2 0.2-0.3 0.3-0.2 0.2-0.5 0.3l1.4 2q0.2 0.1 0.2 0.2 0.1 0.1 0.2 0.2 0.1 0.1 0.2 0.1 0.1 0.1 0.1 0.1h-1.1q0 0-0.1-0.2-0.1-0.1-0.2-0.2l-1.4-2q-0.1 0-0.2 0-0.1 0-0.2 0-0.1 0-0.2 0-0.1 0-0.2 0zm0-1.3q0.1 0.1 0.2 0.1 0.1 0 0.2 0 0.3 0 0.6-0.1 0.2-0.1 0.4-0.3 0.2-0.2 0.3-0.4 0.1-0.3 0.1-0.7 0-0.3-0.1-0.5-0.1-0.3-0.2-0.5-0.1-0.1-0.4-0.2-0.2-0.1-0.4-0.1-0.3 0-0.5 0-0.1 0-0.2 0.1z"/>
		<path id="Vector_13" class="s0" d="m54.5 23.9q0-0.1 0-0.2 0.1-0.1 0.1-0.3 0-0.2 0-0.4 0-0.3 0-0.6v-2.7q0-0.3 0-0.6 0-0.2 0-0.4 0-0.2-0.1-0.3 0-0.1 0-0.2h1q-0.1 0.1-0.1 0.2 0 0.1 0 0.3 0 0.2 0 0.4-0.1 0.3-0.1 0.6v2.7q0 0.3 0.1 0.6 0 0.2 0 0.4 0 0.2 0 0.3 0 0.1 0.1 0.2h-1z"/>
		<path id="Vector_14" class="s0" d="m63.4 19v0.1q-0.4-0.3-0.8-0.5-0.4-0.2-1-0.2-0.5 0-0.9 0.2-0.4 0.1-0.7 0.4-0.3 0.4-0.5 0.8-0.2 0.4-0.2 1 0 0.6 0.2 1.1 0.2 0.6 0.5 1 0.3 0.4 0.8 0.6 0.4 0.2 1.1 0.2 0.2 0 0.4 0 0.3-0.1 0.5-0.2 0.2-0.1 0.4-0.2 0.2-0.2 0.3-0.3h0.1l-0.4 0.8q-0.3 0.1-0.6 0.2-0.4 0.1-0.8 0.1-0.7 0-1.3-0.2-0.6-0.3-1.1-0.7-0.4-0.4-0.7-0.9-0.2-0.6-0.2-1.2 0-0.4 0.1-0.8 0.1-0.4 0.3-0.7 0.1-0.3 0.4-0.6 0.3-0.3 0.7-0.5 0.3-0.2 0.7-0.3 0.5-0.1 1-0.1 0.8 0 1.4 0.2z"/>
		<path id="Vector_15" fill-rule="evenodd" class="s0" d="m70.4 23.9q0.1 0 0.1 0 0-0.1 0-0.1 0-0.1-0.1-0.3 0-0.1-0.1-0.4l-0.5-1.1q-0.2 0-0.6 0-0.4 0-0.8 0-0.3 0-0.6 0-0.3 0-0.5 0l-0.5 1.1q-0.1 0.2-0.1 0.3-0.1 0.2-0.1 0.4 0 0 0 0.1 0 0 0 0h-0.8q0.1-0.1 0.2-0.2 0.1-0.2 0.2-0.5l2.3-5.2h0.3l2.2 5q0.1 0.1 0.2 0.3 0.1 0.2 0.1 0.3 0.1 0.1 0.2 0.2 0 0.1 0.1 0.1zm-2.2-2.2q0.3 0 0.5 0 0.2 0 0.5 0 0.2 0 0.3 0l-1.1-2.6-1.1 2.6c0.2 0 0.8 0 0.9 0z"/>
		<path id="Vector_16" class="s0" d="m76.4 22.9c0 0.6-0.5 1.1-1.2 1.1-0.6 0-1.1-0.5-1.1-1.1 0-0.7 0.5-1.2 1.1-1.2 0.7 0 1.2 0.5 1.2 1.2z"/>
	</g>
</svg>